<svg width="841" height="492" viewBox="0 0 841 492" fill="none" xmlns="http://www.w3.org/2000/svg">
<path d="M473.25 0L406.5 31C406.5 31 429.595 28.2783 437 38C440.741 42.9121 442 46.8253 442 53V297.488C442 305 436.197 313.73 429.15 316.331C416.5 321 407.5 322 407.5 322H514C514 322 499 320.5 489.5 317C480.759 313.78 473.25 307 473.25 297V182C473.25 167 503.5 139.68 538.5 142C565.616 143.797 587.5 159.324 587.5 186.5V297C587.5 304.256 585.038 308.777 580 314C573.398 320.845 557 322 557 322H648C648 322 632.141 320.773 626 314C621.226 308.734 618.25 304.242 618.25 297.134V178.5C618.25 162.5 610.5 143.5 595.5 133C579.187 121.581 565.353 121.458 545.5 123C513.115 125.516 473.25 165.5 473.25 165.5V0Z" fill="black"/>
<path d="M65.5 129.5C19 135.5 22 180.312 57 193.5C91.5 206.5 136 216.5 146 246C153.942 269.429 144.5 303.5 111.5 318.5C78.5 333.5 32 325.5 0 309.5C8 286 8.5 284.5 14.5 268C14.5 275 26.5 311.3 66.5 318.5C116.5 327.5 134 279.5 116.5 260.5C99 241.5 75.5 235.5 62 231C50.725 227.242 -5 215 11.5 160C19.6667 138.667 56.2 103.1 137 131.5L121.5 171C118.333 155.167 102.7 124.7 65.5 129.5Z" fill="black"/>
<path fill-rule="evenodd" clip-rule="evenodd" d="M231 117L172.5 152C181 151 198.5 152.795 198.5 168C198.5 221 199.5 433.5 199.5 447.5C199.5 461.5 187 483 172.5 492C207.5 475.5 216 471.5 253 461.5C231 455.5 231.5 445 231 438.5L230 315.5C270 329.5 311 332 348.5 303.5C386 275 398 220.5 391 187C384 153.5 356 124 319.5 122.5C283 121 252.5 138 231 161.5V117ZM231 284V172C241.407 157.628 244.938 155.536 258.144 147.711L258.5 147.5C274.108 138.251 287.799 137.021 305.5 141C328.747 146.226 340.527 159.098 351 180.5C362.5 204 367.278 233.055 358.5 265C348.471 301.5 325.49 312.485 293.5 314C266.285 315.289 246.5 303 231 284Z" fill="black"/>
<path d="M721.75 119L663 152C663 152 675.878 152.469 681.59 156.118C686.5 159.253 689.5 162.5 689.5 167V303C689.5 307.5 684.5 313 680 316C672.393 321.071 660 322.5 660 322.5H761.5C761.5 322.5 744 320.5 733.5 316C727.598 313.471 721.75 306.5 721.75 303V178C721.75 172.5 734.178 152.407 749.5 147C761.481 142.772 772 144 782 148.5C788.383 151.372 801 155.5 801 155.5L840.5 126C840.5 126 829.108 129.492 821.5 130C807.23 130.953 801.297 121.105 787 121.5C770.14 121.966 760.203 126.667 746.5 136.5C734.523 145.094 721.75 165 721.75 165V119Z" fill="black"/>
</svg>
